<svg width="104" height="115" viewBox="0 0 104 115" fill="none" xmlns="http://www.w3.org/2000/svg">
<path d="M38.7176 5.72467C32.599 8.83337 27.725 11.7348 28.0361 12.2529C28.3472 12.6674 35.399 17.4341 43.799 22.7189C59.7694 32.9776 62.4657 35.7754 59.4583 39.0913C57.3842 41.371 57.1768 47.8993 59.0435 49.4537C61.8435 51.837 65.4731 51.9406 68.3768 49.6609C71.4879 47.1739 72.0065 43.9616 69.725 40.7493C68.8953 39.6095 68.0657 36.6044 67.8583 34.1174L67.5472 29.6616L54.2731 21.0609L40.999 12.4602L45.1472 10.3877C47.4287 9.14423 49.7102 8.21162 50.2287 8.21162C50.6435 8.21162 54.999 10.8022 59.7694 14.0145C68.0657 19.4029 68.5842 19.7138 68.8953 17.5377C69.6213 12.771 68.1694 10.8022 59.4583 5.31018C54.6879 2.40873 50.6435 -0.078228 50.3324 0.0253944C50.125 0.0253944 44.8361 2.61597 38.7176 5.72467ZM67.5472 43.858C67.5472 47.5884 64.7472 49.6609 62.1546 48.0029C58.0065 45.4124 60.0805 40.0239 64.8509 40.5421C67.0287 40.7493 67.5472 41.371 67.5472 43.858Z" fill="#0243C4"/>
<path d="M76.2584 20.8536C76.1547 25.6203 76.1547 33.9101 76.2584 39.2985C76.4658 51.7333 75.3251 54.4275 69.9325 54.013C63.088 53.3913 59.251 60.5413 63.9177 65.2043C67.5473 68.8311 75.3251 66.8623 75.3251 62.1993C75.3251 61.5775 76.9843 60.0232 78.9547 58.8833C80.9251 57.6398 82.5843 56.1891 82.688 55.5674C82.688 54.842 82.688 47.3811 82.5843 38.9877L82.3769 23.6514L86.5251 25.7239C88.8065 26.8637 90.8806 28.5217 91.2954 29.4543C91.6065 30.3869 91.9177 35.5681 91.9177 40.9565C91.9177 46.3449 92.2288 50.6971 92.5399 50.6971C93.6806 50.6971 97.6214 48.3137 98.3473 47.1739C98.7621 46.5522 99.1769 41.5782 99.1769 36.1898C99.1769 30.8014 98.7621 25.8275 98.3473 25.2058C97.6214 24.0659 78.0214 12.3565 76.8806 12.3565C76.5695 12.3565 76.2584 16.1906 76.2584 20.8536ZM71.6954 57.2253C73.8732 58.8833 73.251 63.5464 70.5547 64.5826C66.1991 66.2406 62.6732 59.4014 66.8214 57.0181C69.1028 55.5674 69.4139 55.671 71.6954 57.2253Z" fill="#0243C4"/>
<path d="M10.7176 24.3768C4.39169 27.7964 1.59168 29.8689 1.28057 31.4232C0.34724 35.7754 -0.274982 55.8783 0.554647 55.8783C0.969462 55.8783 1.69539 55.4638 2.31761 54.9457C2.83613 54.4276 10.4065 50.4899 19.1176 46.0341C30.9398 40.1276 35.7102 38.2624 37.5769 38.6768C38.925 39.0913 40.0658 40.0239 40.0658 40.7493C40.0658 45.516 49.088 47.3812 51.888 43.2363C54.1695 40.0239 53.9621 37.0189 51.3695 34.2211C49.6065 32.3558 48.3621 31.9413 45.6658 32.3558C43.5917 32.6667 41.6213 32.3558 40.3769 31.5268C39.3398 30.6979 37.6806 29.9725 36.7472 29.9725C35.7102 29.9725 29.1769 32.9776 22.125 36.708C15.0732 40.4384 8.95465 43.4435 8.53983 43.4435C8.12502 43.4435 7.91761 41.2674 8.12502 38.5732L8.43613 33.7029L16.7324 29.2471C21.2954 26.8638 25.5472 24.5841 26.0658 24.3768C27.3102 23.8587 22.7472 19.6102 20.9843 19.6102C20.3621 19.7138 15.7991 21.7863 10.7176 24.3768ZM50.2287 38.366C50.6435 42.0964 48.0509 44.0653 44.7324 42.6145C40.1695 40.5421 42.2435 34.7392 47.325 35.3609C49.1917 35.5682 50.0213 36.3971 50.2287 38.366Z" fill="#0243C4"/>
<path d="M29.6953 47.5883C28.5546 48.7282 27.6213 50.2825 27.6213 51.1115C27.6213 51.8369 26.1694 53.0804 24.5102 53.8057C22.7472 54.5311 20.8805 55.9818 20.362 57.018C19.7398 58.0543 19.325 65.4115 19.325 73.3905C19.325 89.6594 19.0139 90.2811 13.1027 85.2036L9.78422 82.4057L10.5102 71.6289L11.2361 60.7485L7.71015 62.8209C4.28793 64.7898 4.28793 64.8934 3.35459 74.8412C2.62867 82.8202 2.73237 85.3072 3.87311 86.9651C4.70274 88.105 9.78422 91.8354 15.1768 95.1514L25.0287 101.369L26.0657 81.8876C27.2064 60.1267 27.6213 58.9869 33.8435 58.9869C38.3027 58.9869 41.4139 56.2927 41.4139 52.2514C41.4139 46.2412 33.9472 43.3398 29.6953 47.5883ZM37.9916 50.1789C40.7916 53.4949 35.6064 58.676 32.2879 55.8782C30.7324 54.5311 30.2139 50.5934 31.4583 49.3499C32.7027 48.1064 36.6435 48.6246 37.9916 50.1789Z" fill="#0243C4"/>
<path d="M86.7324 65.2043C75.7398 71.5253 69.6213 74.4268 67.3398 74.5304C65.1621 74.5304 63.9176 74.0123 63.9176 73.0797C63.9176 72.3543 62.9843 70.4891 61.7398 68.9347C58.8361 65.3079 54.4806 65.3079 51.4732 69.0383C47.6361 73.9086 50.6435 79.7115 56.8658 79.7115C58.525 79.7115 61.6361 80.7478 63.7102 81.8876L67.5472 84.1673L81.5472 76.1884L95.5472 68.313L95.8584 72.5615C96.0658 74.8412 95.6509 77.4318 94.925 78.2608C94.3028 79.0898 89.7398 81.8876 84.9695 84.5818L76.1546 89.3485L79.5769 91.421L82.8954 93.597L90.6732 89.5557C103.429 82.7166 103.325 83.0275 103.325 68.313C103.325 61.4739 103.221 55.8782 103.118 55.8782C102.91 55.9818 95.5472 60.1268 86.7324 65.2043ZM60.3917 72.0434C61.4287 75.9811 58.6287 78.3644 55.1028 76.8101C50.7472 74.7376 52.3028 69.3492 57.3843 69.3492C59.0435 69.3492 59.9769 70.1782 60.3917 72.0434Z" fill="#0243C4"/>
<path d="M34.8806 64.1681C32.3917 66.6551 32.1843 70.2819 34.362 73.0797C35.1917 74.1159 35.9176 77.121 35.9176 79.7116V84.3746L49.3991 92.4572C56.8657 96.913 62.6731 100.954 62.362 101.369C62.1546 101.887 60.288 103.027 58.2139 103.959C54.0657 105.928 53.5472 105.721 41.8287 98.3638L35.3991 94.2188L35.088 97.3275C34.5694 101.991 36.125 103.649 45.562 109.037L54.3769 114.011L65.3694 108.208C71.3843 104.996 76.362 101.991 76.362 101.472C76.362 101.058 69.9324 96.8094 62.1546 92.0427C54.2731 87.3797 46.8065 82.7167 45.562 81.8877C42.8657 80.0225 42.4509 76.0848 44.7324 73.9087C48.5694 70.0746 45.0435 62.0956 39.5472 62.0956C38.0954 62.0956 36.0213 63.0283 34.8806 64.1681ZM43.1769 66.7587C46.1843 70.3855 40.4806 75.5667 37.162 72.2507C35.8139 70.9036 35.5028 67.0696 36.6435 65.9297C37.888 64.6862 41.8287 65.2043 43.1769 66.7587Z" fill="#0243C4"/>
</svg>
