<svg width="24" height="24" viewBox="0 0 24 24" fill="none" xmlns="http://www.w3.org/2000/svg">
<path d="M19.8063 8.00049V17.7734C19.8063 19.4303 18.4632 20.7734 16.8063 20.7734H7.19141C5.53455 20.7734 4.19141 19.4303 4.19141 17.7734V8.00049" stroke="black" stroke-width="1.5"/>
<path d="M2.75 5.02662C2.75 4.03251 3.55589 3.22662 4.55 3.22662H19.45C20.4441 3.22662 21.25 4.03251 21.25 5.02662V6.20046C21.25 7.19458 20.4441 8.00047 19.45 8.00047H4.55C3.55589 8.00047 2.75 7.19458 2.75 6.20047V5.02662Z" stroke="black" stroke-width="1.5"/>
<path d="M14.1147 15H9.88281C9.05439 15 8.38281 14.3284 8.38281 13.5C8.38281 12.6716 9.05439 12 9.88281 12H14.1147C14.9432 12 15.6147 12.6716 15.6147 13.5C15.6147 14.3284 14.9432 15 14.1147 15Z" stroke="black" stroke-width="1.5" stroke-linecap="round" stroke-linejoin="round"/>
</svg>
