<svg width="15" height="25" viewBox="0 0 15 25" fill="none" xmlns="http://www.w3.org/2000/svg">
<path d="M11.1641 24.3834L0.62977 14.0695C0.400762 13.8453 0.238931 13.6024 0.144274 13.3408C0.048091 13.0792 0 12.799 0 12.5C0 12.201 0.048091 11.9208 0.144274 11.6592C0.238931 11.3976 0.400762 11.1547 0.62977 10.9305L11.1641 0.616591C11.584 0.20553 12.1183 0 12.7672 0C13.416 0 13.9504 0.20553 14.3702 0.616591C14.7901 1.02765 15 1.55082 15 2.1861C15 2.82137 14.7901 3.34454 14.3702 3.75561L5.43893 12.5L14.3702 21.2444C14.7901 21.6555 15 22.1786 15 22.8139C15 23.4492 14.7901 23.9723 14.3702 24.3834C13.9504 24.7945 13.416 25 12.7672 25C12.1183 25 11.584 24.7945 11.1641 24.3834Z" fill="#292929"/>
</svg>
