<svg width="20" height="21" viewBox="0 0 20 21" fill="none" xmlns="http://www.w3.org/2000/svg">
<path d="M8.2332 8.73438C7.98757 8.96321 7.79056 9.23929 7.65392 9.54587C7.51729 9.85254 7.44381 10.1836 7.43789 10.5193C7.43196 10.855 7.49371 11.1884 7.61946 11.4997C7.74519 11.811 7.93234 12.0938 8.16973 12.3312C8.40711 12.5685 8.68995 12.7557 9.0012 12.8815C9.31253 13.0072 9.64595 13.069 9.98161 13.063C10.3173 13.0571 10.6484 12.9836 10.9549 12.847C11.2616 12.7104 11.5376 12.5133 11.7665 12.2677" stroke="#D5D4D4" stroke-width="1.66667" stroke-linecap="round" stroke-linejoin="round"/>
<path d="M8.9375 4.73464C9.28858 4.69089 9.642 4.66863 9.99583 4.66797C15.8292 4.66797 18.3292 10.5013 18.3292 10.5013C17.9566 11.2989 17.4893 12.0487 16.9375 12.7346" stroke="#D5D4D4" stroke-width="1.66667" stroke-linecap="round" stroke-linejoin="round"/>
<path d="M5.50573 6.00781C3.84844 7.13666 2.52229 8.6872 1.66406 10.4995C1.66406 10.4995 4.16406 16.3328 9.9974 16.3328C11.594 16.3371 13.1564 15.8704 14.4891 14.9911" stroke="#D5D4D4" stroke-width="1.66667" stroke-linecap="round" stroke-linejoin="round"/>
<path d="M1.66406 2.16797L18.3307 18.8346" stroke="#D5D4D4" stroke-width="1.66667" stroke-linecap="round" stroke-linejoin="round"/>
</svg>
