<svg width="18" height="20" viewBox="0 0 18 20" fill="none" xmlns="http://www.w3.org/2000/svg">
<path d="M12.5561 16.5C12.1466 18.0818 10.7096 19.25 8.99983 19.25C7.29003 19.25 5.85307 18.0818 5.4436 16.5" stroke="black" stroke-width="1.5"/>
<path d="M3.22154 8.49246C3.22154 5.3011 5.80865 2.71399 9.00001 2.71399C12.1914 2.71399 14.7785 5.3011 14.7785 8.49246V9.21435C14.7785 9.78766 14.9065 10.3537 15.1533 10.8712L16.3084 13.2939C16.8155 14.3574 16.2946 15.6197 15.1645 15.9529C13.4224 16.4664 10.9239 17.0854 8.99996 17.0854C7.07563 17.0855 4.57639 16.4664 2.83409 15.9528C1.70415 15.6197 1.18339 14.3574 1.69062 13.2942L2.84642 10.8715C3.09338 10.3538 3.22154 9.78752 3.22154 9.21397V8.49246Z" stroke="black" stroke-width="1.5" stroke-linejoin="round"/>
<path d="M7.37109 2.62885L7.37109 2.38393C7.37109 1.4841 8.10055 0.754639 9.00038 0.754639C9.90021 0.754639 10.6297 1.4841 10.6297 2.38393V2.62885" stroke="black" stroke-width="1.5" stroke-linecap="round" stroke-linejoin="round"/>
</svg>
