<svg width="20" height="15" viewBox="0 0 20 15" fill="none" xmlns="http://www.w3.org/2000/svg">
<path fill-rule="evenodd" clip-rule="evenodd" d="M2.59189 7.5026C2.66024 7.63365 2.75049 7.79845 2.86321 7.98783C3.16654 8.49742 3.62739 9.17614 4.25519 9.85223C5.51128 11.2049 7.38882 12.5026 9.9987 12.5026C12.6086 12.5026 14.4861 11.2049 15.7422 9.85223C16.37 9.17614 16.8309 8.49742 17.1342 7.98783C17.2469 7.79845 17.3372 7.63365 17.4055 7.5026C17.3372 7.37156 17.2469 7.20676 17.1342 7.01738C16.8309 6.50779 16.37 5.82907 15.7422 5.15298C14.4861 3.80027 12.6086 2.5026 9.9987 2.5026C7.38882 2.5026 5.51128 3.80027 4.25519 5.15298C3.62739 5.82907 3.16654 6.50779 2.86321 7.01738C2.75049 7.20676 2.66024 7.37156 2.59189 7.5026ZM18.332 7.5026C19.098 7.17434 19.0978 7.174 19.0977 7.17364L19.0964 7.17073L19.0939 7.165L19.0861 7.14726C19.0796 7.1327 19.0706 7.11271 19.0591 7.08765C19.0359 7.03755 19.0025 6.96713 18.9586 6.87928C18.8708 6.7037 18.7407 6.45777 18.5663 6.16491C18.2186 5.58076 17.6899 4.80114 16.9635 4.01889C15.5113 2.45494 13.2222 0.835938 9.9987 0.835938C6.77524 0.835938 4.48611 2.45494 3.03387 4.01889C2.3075 4.80114 1.77877 5.58076 1.43106 6.16491C1.25673 6.45777 1.12661 6.7037 1.03882 6.87928C0.994899 6.96713 0.961478 7.03755 0.938338 7.08765C0.926764 7.11271 0.917753 7.1327 0.911277 7.14726L0.903456 7.165L0.900963 7.17073L0.900069 7.1728C0.899914 7.17317 0.89941 7.17434 1.66536 7.5026L0.89941 7.17434C0.809572 7.38396 0.809572 7.62125 0.89941 7.83087L1.66536 7.5026C0.89941 7.83087 0.899255 7.83051 0.89941 7.83087L0.900069 7.8324L0.900963 7.83448L0.903456 7.84021L0.911277 7.85795C0.917753 7.87251 0.926764 7.8925 0.938338 7.91756C0.961478 7.96766 0.994899 8.03808 1.03882 8.12593C1.12661 8.30151 1.25673 8.54743 1.43106 8.8403C1.77877 9.42445 2.3075 10.2041 3.03387 10.9863C4.48611 12.5503 6.77524 14.1693 9.9987 14.1693C13.2222 14.1693 15.5113 12.5503 16.9635 10.9863C17.6899 10.2041 18.2186 9.42445 18.5663 8.8403C18.7407 8.54743 18.8708 8.30151 18.9586 8.12593C19.0025 8.03808 19.0359 7.96766 19.0591 7.91756C19.0706 7.8925 19.0796 7.87251 19.0861 7.85795L19.0939 7.84021L19.0964 7.83448L19.0973 7.8324C19.0975 7.83204 19.098 7.83087 18.332 7.5026ZM18.332 7.5026L19.098 7.83087C19.1878 7.62125 19.1875 7.38326 19.0977 7.17364L18.332 7.5026Z" fill="#B3B3B3"/>
<path fill-rule="evenodd" clip-rule="evenodd" d="M6.66406 7.50521C6.66406 5.66422 8.15641 4.17188 9.9974 4.17188C11.8384 4.17188 13.3307 5.66422 13.3307 7.50521C13.3307 9.3462 11.8384 10.8385 9.9974 10.8385C8.15641 10.8385 6.66406 9.3462 6.66406 7.50521ZM9.9974 5.83854C9.07688 5.83854 8.33073 6.5847 8.33073 7.50521C8.33073 8.42572 9.07688 9.17188 9.9974 9.17188C10.9179 9.17188 11.6641 8.42572 11.6641 7.50521C11.6641 6.5847 10.9179 5.83854 9.9974 5.83854Z" fill="#B3B3B3"/>
</svg>
